<?xml version="1.0" standalone="no"?>
<!DOCTYPE svg PUBLIC "-//W3C//DTD SVG 20010904//EN"
 "http://www.w3.org/TR/2001/REC-SVG-20010904/DTD/svg10.dtd">
<svg version="1.0" xmlns="http://www.w3.org/2000/svg"
 width="384.000000pt" height="384.000000pt" viewBox="0 0 384.000000 384.000000"
 preserveAspectRatio="xMidYMid meet">

<g transform="translate(0.000000,384.000000) scale(0.100000,-0.100000)"
fill="#000000" stroke="none">
<path d="M1240 3001 c-75 -24 -149 -91 -189 -170 -48 -93 -65 -244 -40 -363
27 -131 120 -267 220 -319 61 -32 176 -33 234 -2 49 25 116 96 144 150 71 140
67 342 -10 499 -36 72 -115 155 -176 185 -47 23 -143 33 -183 20z"/>
<path d="M2472 2883 c-66 -23 -156 -112 -197 -197 -83 -167 -84 -356 -4 -507
146 -273 470 -199 577 130 31 98 34 236 7 329 -22 76 -80 169 -127 205 -72 55
-170 71 -256 40z"/>
<path d="M645 2051 c-60 -36 -70 -64 -68 -181 8 -454 297 -903 724 -1122 294
-151 630 -191 955 -113 578 138 998 637 1030 1224 5 80 2 102 -13 131 -38 72
-123 100 -199 64 -56 -27 -74 -68 -84 -196 -15 -183 -52 -304 -139 -452 -134
-228 -365 -407 -621 -480 -496 -141 -1025 86 -1250 539 -65 130 -99 253 -107
380 -6 119 -27 176 -75 205 -42 26 -113 26 -153 1z"/>
</g>
</svg>
